<?xml version="1.0" encoding="UTF-8"?>
<svg id="Layer_2" data-name="Layer 2" xmlns="http://www.w3.org/2000/svg" viewBox="0 0 20.36 19.52">
  <defs>
    <style>
      .cls-1 {
        fill: #71d0ea;
      }
    </style>
  </defs>
  <g id="Layer_1-2" data-name="Layer 1">
    <g id="_59" data-name="59">
      <path class="cls-1" d="M20.36,5.2h0c0-1.26-1.04-2.29-2.29-2.29h-8.9l-1.03-1.77c-.41-.7-1.17-1.14-1.98-1.14h-3.85C1.03,0,0,1.02,0,2.29c0,2.09,0,14.4,0,14.93C0,18.49,1.03,19.52,2.29,19.52h15.77c1.26,0,2.29-1.03,2.29-2.29V5.2s0,0,0,0ZM18.06,17.82H2.29c-.33,0-.6-.27-.6-.6V7.42h16.96v9.8c0,.33-.27.6-.6.6Z"/>
      <path class="cls-1" d="M12.05,11.31c0-1.05-.83-1.88-1.87-1.88s-1.87.83-1.87,1.88c0,.67.35,1.26.88,1.58l-.4,1.95c-.04.22.12.42.35.42h2.09c.22,0,.39-.2.35-.42l-.39-1.94c.53-.33.87-.92.87-1.59Z"/>
    </g>
  </g>
</svg>