<?xml version="1.0" encoding="UTF-8"?>
<svg id="Layer_2" data-name="Layer 2" xmlns="http://www.w3.org/2000/svg" viewBox="0 0 19.1 19.38">
  <defs>
    <style>
      .cls-1 {
        fill: #71d0ea;
        fill-rule: evenodd;
      }
    </style>
  </defs>
  <g id="Layer_1-2" data-name="Layer 1">
    <path class="cls-1" d="M3.76,17.78c-1.9-.02-3.76-.55-3.76-1.59,0-2.12,1.72-3.85,3.85-3.85.64,0,1.24.15,1.76.43-1.14,1.02-2.43,3.48-1.85,5.01ZM14.89,17.16c0-1.96-1.05-3.67-2.62-4.6l-2.72,4.15-2.72-4.15c-1.57.93-2.62,2.64-2.62,4.6,0,2.95,10.68,2.95,10.68,0h0ZM10.2,13.11l.18,1.32-.83,1.27-.83-1.27.18-1.32c-.07-.05-.12-.12-.15-.2l-.19-.57c-.08-.26.11-.51.37-.51h1.23c.27,0,.46.26.37.51l-.19.57c-.03.09-.08.16-.15.2h0ZM7.08,7.93c0,1.36,1.11,2.47,2.47,2.47s2.47-1.11,2.47-2.47-1.11-2.47-2.47-2.47-2.47,1.11-2.47,2.47h0ZM9.27.28c0-.15.12-.28.28-.28s.28.12.28.28v2.79c0,.15-.12.28-.28.28s-.28-.12-.28-.28V.28ZM3.94,2.72c-.11-.11-.11-.29,0-.39s.29-.11.39,0l1.97,1.97c.11.11.11.29,0,.39-.11.11-.29.11-.39,0l-1.97-1.97ZM14.76,2.32c.11-.11.29-.11.39,0s.11.29,0,.39l-1.97,1.97c-.11.11-.29.11-.39,0s-.11-.29,0-.39l1.97-1.97ZM19.1,16.19c0,1.05-1.87,1.58-3.76,1.59.58-1.54-.71-3.99-1.85-5.01.53-.27,1.13-.43,1.76-.43,2.12,0,3.85,1.72,3.85,3.85h0ZM13.47,9.54c0,.98.8,1.78,1.78,1.78s1.78-.8,1.78-1.78-.8-1.78-1.78-1.78-1.78.8-1.78,1.78ZM2.07,9.54c0,.98.8,1.78,1.78,1.78s1.78-.8,1.78-1.78-.8-1.78-1.78-1.78-1.78.8-1.78,1.78Z"/>
  </g>
</svg>