<?xml version="1.0" encoding="UTF-8"?>
<svg id="Layer_2" data-name="Layer 2" xmlns="http://www.w3.org/2000/svg" viewBox="0 0 17.04 24.06">
  <defs>
    <style>
      .cls-1 {
        fill: #71d0ea;
      }
    </style>
  </defs>
  <g id="Layer_1-2" data-name="Layer 1">
    <g>
      <path class="cls-1" d="M3.01,2.21c-1.7,0-3.01,1.4-3.01,3.01v15.84c0,1.7,1.3,3.01,3.01,3.01h11.03c1.7,0,3.01-1.4,3.01-3.01V5.21c0-1.7-1.3-3.01-3.01-3.01h-2.1v1.7c0,1.9-1.5,3.41-3.41,3.41s-3.41-1.5-3.41-3.41v-1.7h-2.1ZM8.52,10.52c1.2,0,2.21,1,2.21,2.21s-1,2.21-2.21,2.21-2.21-1-2.21-2.21,1-2.21,2.21-2.21ZM5.91,16.64c.2-.2.5-.1.7,0,.6.3,1.2.4,1.9.4s1.4-.2,2-.4c.2-.1.5-.1.7,0,.6.4,1,.9,1.4,1.5.5.9-.1,2.1-1.2,2.1h-5.71c-1.1,0-1.7-1.1-1.2-2,.3-.7.8-1.2,1.4-1.6h0Z"/>
      <path class="cls-1" d="M10.02,3.91V1.5c0-.8-.7-1.5-1.5-1.5s-1.5.7-1.5,1.5v2.41c0,.8.7,1.5,1.5,1.5s1.5-.7,1.5-1.5Z"/>
    </g>
  </g>
</svg>