<?xml version="1.0" encoding="UTF-8"?>
<svg id="Layer_2" data-name="Layer 2" xmlns="http://www.w3.org/2000/svg" viewBox="0 0 21.98 22.09">
  <defs>
    <style>
      .cls-1 {
        fill: #71d0ea;
      }
    </style>
  </defs>
  <g id="Layer_1-2" data-name="Layer 1">
    <g id="Layer_2-2" data-name="Layer 2">
      <path class="cls-1" d="M21.98,14.41c0,.21-.17.38-.38.38h-6.24c-.21,0-.38-.17-.38-.38,0-1.1.51-2.13,1.39-2.79h-5.18v3.78c.97.21,1.59,1.17,1.38,2.14-.07.34-.24.65-.49.9,1.35.52,2.23,1.82,2.23,3.26,0,.21-.17.38-.38.38h-6.24c-.21,0-.38-.17-.38-.38,0-1.44.89-2.74,2.23-3.26-.71-.7-.71-1.84,0-2.55.25-.25.56-.42.9-.49v-3.78h-4.79c.87.66,1.39,1.69,1.39,2.79,0,.21-.17.38-.38.38H.38c-.21,0-.38-.17-.38-.38,0-1.44.89-2.74,2.23-3.26-.71-.7-.71-1.84-.01-2.55.7-.71,1.84-.71,2.55-.01.61.6.71,1.56.24,2.27h5.4v-4.03s0-.06.02-.09h-2.76c-.21,0-.38-.17-.38-.38,0-1.44.89-2.74,2.23-3.26-.71-.7-.71-1.84-.01-2.55.7-.71,1.84-.71,2.55-.01.71.7.71,1.84.01,2.55,0,0,0,0-.01.01,1.35.52,2.23,1.82,2.23,3.26,0,.21-.17.38-.38.38h-2.76s.02.06.02.09v4.03h5.79c-.54-.83-.31-1.95.52-2.49.83-.54,1.95-.31,2.49.52.47.72.37,1.66-.24,2.26,1.35.52,2.23,1.82,2.23,3.26h0Z"/>
    </g>
  </g>
</svg>