<svg width="35" height="35" viewBox="0 0 35 35" fill="none" xmlns="http://www.w3.org/2000/svg">
<path d="M10.2077 20.4166V29.1666C10.2077 29.5798 10.0677 29.9264 9.78768 30.2064C9.50768 30.4864 9.16157 30.626 8.74935 30.625C8.33713 30.624 7.99102 30.484 7.71102 30.205C7.43102 29.926 7.29102 29.5798 7.29102 29.1666V7.29165C7.29102 6.87845 7.43102 6.53234 7.71102 6.25331C7.99102 5.97429 8.33713 5.83429 8.74935 5.83331H19.2129C19.5532 5.83331 19.857 5.94269 20.1243 6.16144C20.3917 6.38019 20.5618 6.6597 20.6348 6.99998L20.9993 8.74998H27.7077C28.1209 8.74998 28.4675 8.88998 28.7475 9.16998C29.0275 9.44998 29.167 9.79609 29.166 10.2083V21.875C29.166 22.2882 29.026 22.6348 28.746 22.9148C28.466 23.1948 28.1199 23.3343 27.7077 23.3333H20.1608C19.8205 23.3333 19.5167 23.2239 19.2493 23.0052C18.982 22.7864 18.8118 22.5069 18.7389 22.1666L18.3743 20.4166H10.2077Z" fill="#4A9EB3"/>
</svg>
