<?xml version="1.0" encoding="UTF-8"?>
<svg id="Layer_2" data-name="Layer 2" xmlns="http://www.w3.org/2000/svg" viewBox="0 0 24.81 24.81">
  <defs>
    <style>
      .cls-1 {
        fill: #71d0ea;
        fill-rule: evenodd;
      }
    </style>
  </defs>
  <g id="Layer_1-2" data-name="Layer 1">
    <path class="cls-1" d="M12.4,0c6.84,0,12.4,5.57,12.4,12.4s-5.57,12.4-12.4,12.4S0,19.24,0,12.4,5.57,0,12.4,0ZM20.15,18.61c-1.82,2.27-4.61,3.72-7.74,3.72s-5.92-1.45-7.74-3.72c1.82-2.27,4.61-3.72,7.74-3.72s5.92,1.45,7.74,3.72ZM12.4,12.4c2.06,0,3.72-1.67,3.72-3.72s-1.67-3.72-3.72-3.72-3.72,1.67-3.72,3.72,1.67,3.72,3.72,3.72Z"/>
  </g>
</svg>