<?xml version="1.0" encoding="UTF-8"?>
<svg id="Layer_2" data-name="Layer 2" xmlns="http://www.w3.org/2000/svg" viewBox="0 0 20.14 20.22">
  <defs>
    <style>
      .cls-1 {
        fill: #71d0ea;
      }
    </style>
  </defs>
  <g id="Layer_1-2" data-name="Layer 1">
    <g>
      <path class="cls-1" d="M11.45.35v3.6h3.6L11.45.35Z"/>
      <path class="cls-1" d="M7.11,8.53c0-.98-.8-1.78-1.78-1.78s-1.78.8-1.78,1.78v.2h3.55v-.2Z"/>
      <circle class="cls-1" cx="5.33" cy="4.78" r=".79"/>
      <path class="cls-1" d="M19.35,14.89h-5.13c-.44,0-.79.35-.79.79v3.75c0,.44.35.79.79.79h5.13c.44,0,.79-.35.79-.79v-3.75c0-.44-.35-.79-.79-.79ZM17.38,18.25c0,.33-.27.59-.59.59s-.59-.27-.59-.59v-.79c0-.33.27-.59.59-.59s.59.27.59.59v.79Z"/>
      <path class="cls-1" d="M14.22,12.92v.79h1.18v-.79c0-.76.62-1.38,1.38-1.38s1.38.62,1.38,1.38v.79h1.18v-.79c0-1.42-1.15-2.57-2.57-2.57s-2.57,1.15-2.57,2.57Z"/>
      <path class="cls-1" d="M15.4,9.43v-4.29h-4.54c-.33,0-.59-.27-.59-.59V0H.59c-.33,0-.59.27-.59.59v19.04c0,.33.27.59.59.59h11.82c-.11-.24-.17-.51-.17-.79v-3.75c0-.64.31-1.22.79-1.58v-1.19c0-1.58.98-2.94,2.37-3.49ZM2.37,8.53c0-1.07.57-2,1.42-2.53-.27-.34-.43-.76-.43-1.23,0-1.09.89-1.97,1.97-1.97s1.97.89,1.97,1.97c0,.46-.16.89-.43,1.23.85.52,1.42,1.46,1.42,2.53v.79c0,.33-.27.59-.59.59H2.96c-.33,0-.59-.27-.59-.59v-.79ZM9.28,17.02H2.96c-.33,0-.59-.27-.59-.59s.27-.59.59-.59h6.32c.33,0,.59.27.59.59s-.27.59-.59.59ZM11.65,14.65H2.96c-.33,0-.59-.27-.59-.59s.27-.59.59-.59h8.69c.33,0,.59.27.59.59s-.27.59-.59.59ZM11.65,12.28H2.96c-.33,0-.59-.27-.59-.59s.27-.59.59-.59h8.69c.33,0,.59.27.59.59s-.27.59-.59.59ZM12.44,9.91h-2.37c-.33,0-.59-.27-.59-.59s.27-.59.59-.59h2.37c.33,0,.59.27.59.59s-.27.59-.59.59ZM12.44,7.54h-2.37c-.33,0-.59-.27-.59-.59s.27-.59.59-.59h2.37c.33,0,.59.27.59.59s-.27.59-.59.59Z"/>
    </g>
  </g>
</svg>