<?xml version="1.0" encoding="UTF-8"?>
<svg id="Layer_2" data-name="Layer 2" xmlns="http://www.w3.org/2000/svg" viewBox="0 0 19.59 19.59">
  <defs>
    <style>
      .cls-1 {
        fill: #71d0ea;
      }
    </style>
  </defs>
  <g id="Layer_1-2" data-name="Layer 1">
    <g id="Layer_25" data-name="Layer 25">
      <circle class="cls-1" cx="5.64" cy="16.03" r=".89"/>
      <path class="cls-1" d="M5.64,17.22c-.82,0-1.48.66-1.48,1.48v.59c0,.16.13.3.3.3h2.38c.16,0,.3-.13.3-.3v-.59c0-.82-.66-1.48-1.48-1.48Z"/>
      <circle class="cls-1" cx="9.8" cy="16.03" r=".89"/>
      <path class="cls-1" d="M9.8,17.22c-.82,0-1.48.66-1.48,1.48v.59c0,.16.13.3.3.3h2.38c.16,0,.3-.13.3-.3v-.59c0-.82-.66-1.48-1.48-1.48Z"/>
      <path class="cls-1" d="M13.95,17.22c-.82,0-1.48.66-1.48,1.48v.59c0,.16.13.3.3.3h2.38c.16,0,.3-.13.3-.3v-.59c0-.82-.66-1.48-1.48-1.48Z"/>
      <path class="cls-1" d="M18.7,11.88h-2.38v-.59c0-.16-.13-.3-.3-.3s-.3.13-.3.3v.59h-3.56v-6.23c0-.16-.13-.3-.3-.3h-3.86V1.48c0-.82-.66-1.48-1.48-1.48H2.38C1.56,0,.89.66.89,1.48v10.39H.3c-.16,0-.3.13-.3.3s.13.3.3.3h18.41c.16,0,.3.13.3.3v.3c0,.16-.13.3-.3.3H6.23c-.49,0-.89.4-.89.89v.3c0,.16.13.3.3.3s.3-.13.3-.3v-.3c0-.16.13-.3.3-.3h3.27v.59c0,.16.13.3.3.3s.3-.13.3-.3v-.59h3.56v.59c0,.16.13.3.3.3s.3-.13.3-.3v-.59h3.56v.59c0,.16.13.3.3.3s.3-.13.3-.3v-.59h.3c.49,0,.89-.4.89-.89v-.3c0-.49-.4-.89-.89-.89ZM6.83,2.08v1.19c0,.16-.13.3-.3.3h-1.19c-.16,0-.3-.13-.3-.3v-1.19c0-.16.13-.3.3-.3h1.19c.16,0,.3.13.3.3ZM6.53,5.94h-1.19c-.16,0-.3-.13-.3-.3v-1.19c0-.16.13-.3.3-.3h1.19c.16,0,.3.13.3.3v1.19c0,.16-.13.3-.3.3ZM6.83,6.83v1.19c0,.16-.13.3-.3.3h-1.19c-.16,0-.3-.13-.3-.3v-1.19c0-.16.13-.3.3-.3h1.19c.16,0,.3.13.3.3ZM5.05,9.2c0-.16.13-.3.3-.3h1.19c.16,0,.3.13.3.3v1.19c0,.16-.13.3-.3.3h-1.19c-.16,0-.3-.13-.3-.3v-1.19ZM8.02,11.88v-5.94h3.56v5.94h-3.56Z"/>
      <circle class="cls-1" cx="18.11" cy="16.03" r=".89"/>
      <circle class="cls-1" cx="13.95" cy="16.03" r=".89"/>
      <path class="cls-1" d="M18.11,17.22c-.82,0-1.48.66-1.48,1.48v.59c0,.16.13.3.3.3h2.38c.16,0,.3-.13.3-.3v-.59c0-.82-.66-1.48-1.48-1.48Z"/>
      <circle class="cls-1" cx="16.03" cy="4.75" r="1.19"/>
      <path class="cls-1" d="M14.25,10.69h3.56c.16,0,.3-.13.3-.3v-1.78c0-1.15-.93-2.08-2.08-2.08s-2.08.93-2.08,2.08v1.78c0,.16.13.3.3.3Z"/>
    </g>
  </g>
</svg>