<svg width="35" height="35" viewBox="0 0 35 35" fill="none" xmlns="http://www.w3.org/2000/svg">
<path d="M17.4999 4.37501C19.3083 4.37282 21.053 5.04271 22.3952 6.2546C23.7374 7.4665 24.5814 9.13392 24.7634 10.9331C24.9453 12.7324 24.4521 14.535 23.3797 15.991C22.3072 17.4471 20.7319 18.4526 18.9597 18.8125L18.9582 25.6433L20.8438 23.7606C21.095 23.5095 21.4291 23.3587 21.7835 23.3364C22.1379 23.3141 22.4883 23.4219 22.7688 23.6396L22.9059 23.7606C23.1793 24.0341 23.3329 24.405 23.3329 24.7917C23.3329 25.1784 23.1793 25.5492 22.9059 25.8227L18.5309 30.1977C18.4801 30.2488 18.4255 30.2961 18.3676 30.3392L18.2072 30.4427L18.0409 30.5215L17.8878 30.5725L17.6705 30.6163L17.4999 30.625L17.3905 30.6206L17.2068 30.5958L17.0449 30.5521L16.883 30.4879L16.7401 30.4121L16.6001 30.3144L16.4688 30.1977L12.0938 25.8227C11.8282 25.5477 11.6812 25.1793 11.6845 24.7969C11.6879 24.4146 11.8412 24.0488 12.1116 23.7784C12.382 23.508 12.7478 23.3546 13.1301 23.3513C13.5125 23.348 13.8809 23.495 14.1559 23.7606L16.0416 25.6448V18.8125C14.275 18.4466 12.7067 17.439 11.6396 15.9844C10.5725 14.5298 10.0822 12.7314 10.2635 10.9365C10.4448 9.14154 11.2848 7.47748 12.6213 6.26566C13.9577 5.05385 15.6958 4.38027 17.4999 4.37501Z" fill="#4A9EB3"/>
</svg>
